<svg xmlns="http://www.w3.org/2000/svg" width="15.084" height="15.088" viewBox="0 0 15.084 15.088">
  <g id="instagram" transform="translate(-0.287 -0.412)">
    <g id="Group_7" data-name="Group 7">
      <g id="Group_6" data-name="Group 6">
        <g id="Group_5" data-name="Group 5">
          <g id="Group_4" data-name="Group 4">
            <path id="Path_2" data-name="Path 2" d="M15.046,4.436a5.517,5.517,0,0,0-.35-1.83,3.691,3.691,0,0,0-.873-1.339A3.741,3.741,0,0,0,12.488.4a5.564,5.564,0,0,0-1.83-.35C9.85.01,9.592,0,7.544,0S5.24.009,4.435.044a5.553,5.553,0,0,0-1.83.35,3.7,3.7,0,0,0-1.338.873A3.741,3.741,0,0,0,.4,2.6a5.564,5.564,0,0,0-.35,1.83C.01,5.24,0,5.5,0,7.546s.009,2.3.044,3.11A5.525,5.525,0,0,0,.4,12.486,3.866,3.866,0,0,0,2.6,14.694a5.539,5.539,0,0,0,1.83.35c.8.035,1.062.044,3.11.044s2.305-.009,3.11-.044a5.528,5.528,0,0,0,1.83-.35,3.861,3.861,0,0,0,2.207-2.208,5.51,5.51,0,0,0,.351-1.83c.035-.805.044-1.062.044-3.11s0-2.305-.038-3.11ZM13.687,10.6a4.107,4.107,0,0,1-.26,1.4,2.5,2.5,0,0,1-1.432,1.432,4.164,4.164,0,0,1-1.4.26c-.8.035-1.034.043-3.047.043s-2.255-.008-3.048-.044a4.107,4.107,0,0,1-1.4-.26,2.316,2.316,0,0,1-.866-.562A2.359,2.359,0,0,1,1.671,12a4.164,4.164,0,0,1-.26-1.4c-.035-.8-.043-1.034-.043-3.047S1.376,5.3,1.412,4.5a4.107,4.107,0,0,1,.26-1.4,2.288,2.288,0,0,1,.565-.866A2.359,2.359,0,0,1,3.1,1.674a4.164,4.164,0,0,1,1.4-.26c.8-.035,1.034-.044,3.047-.044s2.255.01,3.047.045a4.1,4.1,0,0,1,1.4.26,2.3,2.3,0,0,1,.867.562,2.359,2.359,0,0,1,.563.867,4.164,4.164,0,0,1,.26,1.4c.035.8.043,1.034.043,3.047S13.723,9.8,13.687,10.6Z" transform="translate(0.287 0.412)" fill="#eee" fill-rule="evenodd"/>
            <path id="Path_3" data-name="Path 3" d="M7.545,3.67a3.875,3.875,0,1,0,3.876,3.875A3.876,3.876,0,0,0,7.545,3.67Zm0,6.39a2.515,2.515,0,1,1,2.514-2.515A2.515,2.515,0,0,1,7.545,10.06Zm4.934-6.544a.9.9,0,1,1-.9-.9A.9.9,0,0,1,12.479,3.516Z" transform="translate(0.287 0.412)" fill="#eee" fill-rule="evenodd"/>
          </g>
        </g>
      </g>
    </g>
  </g>
</svg>
